<svg width="270" height="275" viewBox="0 0 270 275" fill="none" xmlns="http://www.w3.org/2000/svg">
  <html id="simulator">
    <head>
      <style>html { background: white !important; overflow: hidden !important; } html#simulator &gt; body &gt; *:not(#app) { display: none; }</style>
    </head>
    <body>
      <div id="app" data-js="simulator-extension"/>
    </body>
  </html>
<g clip-path="url(#clip0_309_2827)">
<path d="M133.884 263.848C204.888 263.848 262.448 206.287 262.448 135.283C262.448 64.2793 204.888 6.71912 133.884 6.71912C62.88 6.71912 5.31982 64.2793 5.31982 135.283C5.31982 206.287 62.88 263.848 133.884 263.848Z" fill="#FEFEFE"/>
<path d="M140.534 257.198C211.538 257.198 269.098 199.638 269.098 128.633C269.098 57.6294 211.538 0.0692139 140.534 0.0692139C69.5299 0.0692139 11.9697 57.6294 11.9697 128.633C11.9697 199.638 69.5299 257.198 140.534 257.198Z" fill="#FF270E"/>
<path fill-rule="evenodd" clip-rule="evenodd" d="M69.602 94.9407L112.604 138.387L68.7153 181.832L93.9849 205.772L136.987 163.213L179.99 206.215L203.929 181.389L161.814 138.83L204.373 95.8274L180.433 71.0012L136.987 114.004L93.9849 70.5579L69.602 94.9407Z" fill="#FEFEFE"/>
<path fill-rule="evenodd" clip-rule="evenodd" d="M133.441 8.49243C196.836 8.49243 249.592 52.8249 263.335 112.23L257.572 116.22C245.602 58.1448 194.62 14.699 133.441 14.699C117.481 14.699 102.408 17.8023 88.2217 23.1222L87.335 16.4723C101.521 11.1524 117.038 8.49243 133.441 8.49243ZM266.438 138.83C266.438 139.717 266.438 140.603 266.438 141.49C266.438 182.719 247.819 219.072 219.003 243.455L215.899 237.691C242.942 214.639 260.232 180.059 260.232 141.49C260.232 141.047 260.232 140.603 260.232 140.16L266.438 138.83ZM173.783 268.724C160.927 272.714 147.627 274.931 133.441 274.931C67.8287 274.931 13.7431 227.938 2.21662 166.316H8.8665C20.3929 224.392 71.8186 268.724 133.441 268.724C146.741 268.724 159.597 266.508 172.01 262.518L173.783 268.724ZM0 141.933V141.49C0 102.034 17.2897 67.0113 44.3325 42.6284L48.7657 47.0617C22.6096 70.5579 6.20655 104.251 6.20655 141.49V141.933H0Z" fill="#332C2B"/>
</g>
<defs>
<clipPath id="clip0_309_2827">
<rect width="269.098" height="275" fill="white"/>
</clipPath>
</defs>
</svg>