<?xml version="1.0" encoding="UTF-8"?>
<!DOCTYPE svg PUBLIC "-//W3C//DTD SVG 1.1//EN" "http://www.w3.org/Graphics/SVG/1.1/DTD/svg11.dtd">
<!-- Creator: CorelDRAW 2019 (64-Bit) -->
<svg xmlns="http://www.w3.org/2000/svg" xml:space="preserve" width="30mm" height="30mm" version="1.1" style="shape-rendering:geometricPrecision; text-rendering:geometricPrecision; image-rendering:optimizeQuality; fill-rule:evenodd; clip-rule:evenodd"
viewBox="0 0 3000 3000"
 xmlns:xlink="http://www.w3.org/1999/xlink"
 xmlns:xodm="http://www.corel.com/coreldraw/odm/2003">
 <defs>
  <style type="text/css">
   <![CDATA[
    .str0 {stroke:#EB4034;stroke-width:20;stroke-miterlimit:22.9256}
    .fil0 {fill:#EB4034}
   ]]>
  </style>
 </defs>
 <g id="Layer_x0020_1">
  <metadata id="CorelCorpID_0Corel-Layer"/>
  <g id="_1989183749856">
   <polygon class="fil0 str0" points="1818.65,787.77 2997.18,787.77 2997.18,1435.4 1818.65,1435.4 "/>
   <polygon class="fil0 str0" points="-2.82,787.77 1174.88,787.77 1174.88,1435.4 -2.82,1435.4 "/>
   <polygon class="fil0 str0" points="1825.65,1552.72 2873.07,1552.72 2873.07,3002.83 1825.65,3002.83 "/>
   <polygon class="fil0 str0" points="124.75,1552.72 1167.83,1552.72 1167.83,3002.83 124.75,3002.83 "/>
   <polygon class="fil0 str0" points="1299.93,1552.72 1692.21,1552.72 1692.21,3002.83 1299.93,3002.83 "/>
   <polygon class="fil0 str0" points="1294.08,787.77 1694.59,787.77 1694.59,1435.4 1294.08,1435.4 "/>
   <path class="fil0 str0" d="M1590.15 904.63c797.49,-156.75 821.16,-552.17 676.76,-768.95 -128.68,-193.17 -531.19,-172.35 -633.71,40.79l-143.3 297.89 -143.3 -297.89c-102.53,-213.14 -505.03,-233.96 -633.72,-40.79 -144.4,216.78 -120.73,612.2 676.76,768.95l53.87 -8.19 146.64 8.19zm-167.06 -132.52c0,0 -23.41,-326.15 -191.97,-532.65 -168.55,-206.5 -383.77,-92.52 -426.06,-16.43 -81.41,146.43 -53.09,404.78 618.03,549.08zm133.62 0c0,0 23.41,-326.15 191.96,-532.65 168.55,-206.5 383.77,-92.52 426.07,-16.43 81.4,146.43 53.08,404.78 -618.03,549.08z"/>
  </g>
 </g>
</svg>
