<?xml version="1.0" encoding="UTF-8"?>
<!DOCTYPE svg PUBLIC "-//W3C//DTD SVG 1.1//EN" "http://www.w3.org/Graphics/SVG/1.1/DTD/svg11.dtd">
<!-- Creator: CorelDRAW 2019 (64-Bit) -->
<svg xmlns="http://www.w3.org/2000/svg" xml:space="preserve" width="30mm" height="30mm" version="1.1" style="shape-rendering:geometricPrecision; text-rendering:geometricPrecision; image-rendering:optimizeQuality; fill-rule:evenodd; clip-rule:evenodd"
viewBox="0 0 3000 3000"
 xmlns:xlink="http://www.w3.org/1999/xlink"
 xmlns:xodm="http://www.corel.com/coreldraw/odm/2003">
 <defs>
  <style type="text/css">
   <![CDATA[
    .fil0 {fill:#EB4034}
   ]]>
  </style>
 </defs>
 <g id="Layer_x0020_1">
  <metadata id="CorelCorpID_0Corel-Layer"/>
  <g id="_1989186303696">
   <path class="fil0" d="M615.99 1487.14c0,-456.57 400.43,-865.39 850.98,-865.39l60.07 0c545.85,0 1047.36,598.16 772.31,1244.34 -22.52,52.9 -48.84,90.93 -77.77,135.87 -52.68,81.83 -136.68,160.46 -215.42,218.82 -41.88,31.05 -83.86,53.04 -135.4,78.53 -135.3,66.9 -250.55,83.26 -403.79,83.26 -260.98,0 -555.04,-163.93 -694.53,-380.61 -104.89,-162.92 -156.45,-303.22 -156.45,-514.82zm486.33 -1478.08c-113.24,28.95 -138.12,119.09 -201.58,196.1 -52.82,64.09 -140.67,124.28 -261.92,137.88 -138.75,15.56 -226.85,10.95 -274.95,126.76 -51.13,123.13 14.67,288.47 -164.3,436.88 -70.9,58.79 -283.41,141.69 -169.43,368.62 51.82,103.16 92.24,183 57.78,321.13 -25.16,100.83 -115.72,190.22 -84.13,306.81 47.1,173.77 305.51,149.73 334.58,465.85 9.44,102.57 2.28,218.81 132.04,269.53 107.24,41.92 296.32,-9.96 435.46,165.25 27.6,34.77 51.9,82.62 82.17,118.31 68.63,80.94 157.64,109.05 282.02,45.38 356.29,-182.39 421.81,71.1 617.75,30.85 178.16,-36.59 154.69,-298.09 460.53,-335.76 63.5,-7.82 114.94,-0.31 175.4,-23.93 218.21,-85.26 37.71,-323.27 264.7,-536.8 64.03,-60.24 291.03,-132.43 177.35,-364.2 -49.4,-100.71 -93.3,-183.31 -61.34,-321.82 24.09,-104.44 112.43,-189.73 87.07,-306.25 -38.75,-178.02 -300.05,-154.27 -335.12,-464.99 -15.72,-139.28 -10.61,-226.75 -126.55,-275.24 -106.13,-44.39 -210.35,-5.96 -327.19,-73.38 -64.65,-37.31 -116.47,-88.96 -152.66,-147.62 -68.82,-111.51 -160.42,-194.13 -324.62,-113 -104.28,51.52 -181.72,91.84 -321.19,58.13 -101.54,-24.54 -187.97,-113.6 -301.87,-84.49z"/>
   <path class="fil0" d="M899.18 1374.39l147.71 139.05c50.92,56.64 105.45,96.23 148.05,147.44l-68.27 409.21c64.05,-23.15 338.45,-185.44 367.78,-187.15 31.22,-1.83 308.72,166.11 371.79,186.85l-69.55 -415.85c73.35,-43.17 232.69,-240.24 298.15,-279.55 -1.42,-1.11 -3.83,-4.22 -4.65,-2.79l-14.7 -6.67c-6.92,-2.12 -20.65,-3.73 -28,-4.7l-338.23 -48.68c-32.43,-5.52 -26.11,-1.34 -39.8,-26.95 -47.57,-89.04 -129.69,-280.2 -172.4,-348.81l-170.39 344.3c-19.38,39.04 -40.91,30.67 -89.23,37.73 -37.96,5.56 -314.47,38.24 -338.26,56.57z"/>
  </g>
 </g>
</svg>
