<?xml version="1.0" encoding="UTF-8"?>
<!DOCTYPE svg PUBLIC "-//W3C//DTD SVG 1.1//EN" "http://www.w3.org/Graphics/SVG/1.1/DTD/svg11.dtd">
<!-- Creator: CorelDRAW 2019 (64-Bit) -->
<svg xmlns="http://www.w3.org/2000/svg" xml:space="preserve" width="30mm" height="30mm" version="1.1" style="shape-rendering:geometricPrecision; text-rendering:geometricPrecision; image-rendering:optimizeQuality; fill-rule:evenodd; clip-rule:evenodd"
viewBox="0 0 3000 3000"
 xmlns:xlink="http://www.w3.org/1999/xlink"
 xmlns:xodm="http://www.corel.com/coreldraw/odm/2003">
 <defs>
  <style type="text/css">
   <![CDATA[
    .fil0 {fill:#FEFEFE}
   ]]>
  </style>
 </defs>
 <g id="Layer_x0020_1">
  <metadata id="CorelCorpID_0Corel-Layer"/>
  <g id="_1992548947872">
   <path class="fil0" d="M2188.82 257.31c-13.58,-5.65 -16.39,-8.49 -26.57,-14.34 -25.08,-14.41 -53.71,-26.91 -80.68,-39.69 -5.87,-2.78 -7.96,-5.38 -12.47,-7.33l-70.74 -29.4c-47.97,-19.8 -101.17,-34.45 -152.46,-49.61 -10.2,-3.01 -21.99,-4.1 -31.64,-7.14 -19.27,-6.07 -41.87,-10.44 -63.44,-15.4 -11.35,-2.61 -23.52,-3.25 -35.01,-5.78 -9.57,-2.12 -24.3,-5.37 -33.33,-7.09l-148.1 -13.75c-46.17,-1.12 -115.93,-4.17 -160.21,0.96 -88.13,10.21 -117.87,8.67 -209.78,28.72 -24.44,5.33 -43.57,9.45 -67.44,14.71 -19.36,4.27 -39.53,12.55 -61.28,17.8 -31.34,7.57 -120.66,40.9 -147.25,54.23 -44.48,22.28 -91.97,40.41 -133.56,65.97 -9.12,5.61 -17.77,9.67 -26.33,14.58l-49.08 30.27c-7.9,5.21 -15.9,11.28 -24.12,16.4 -17.19,10.71 -32.16,23.07 -47.04,32.46 -56.15,35.45 -124.91,99.56 -173.68,146.45 -34.31,32.97 -64.1,67.99 -95.81,103.76 -17.13,19.33 -56.26,68.98 -70.17,90.77 -15.49,24.29 -33.59,46.64 -48.26,71.84 -9.6,16.49 -18.74,32.3 -30.35,51.26 -9.96,16.23 -19.48,34.69 -28.4,51.03l-26.45 52.82c-9.06,17.87 -15.48,37.71 -24.63,54.96l-23.06 57.87c-17.86,55.59 -43.8,127.39 -55.07,185.44l-14.06 67.21c-3.91,24.53 -6.86,46.49 -10.53,69.02 -19.71,121.12 -10.05,337.71 12.59,449.22 6.86,33.81 19.65,102.11 28.86,132.92 3.6,12.06 5.82,18.85 8.76,32.04 3.49,15.68 27.7,73.82 31.29,85.64l34.24 88.83c20.95,42.78 42.99,89.28 67.48,129.93 48.74,80.92 62.13,99.43 112.32,169.17 5.54,7.7 11.21,12.72 17.47,21.05 33.32,44.33 73.11,87.37 113.25,125.07 42.32,39.75 78.87,75.67 127.97,112.52 15.1,11.32 27.14,22.13 45.35,34.1 38.37,25.19 80.71,58.39 121.62,79.66 34.91,18.14 70.15,39.46 104.9,55.97 4.41,2.09 9.58,3.75 14.27,6.42 22.95,13.05 103.09,42.76 128.29,51.41 50.37,17.3 101.34,34.59 155.1,44.87 11.83,2.27 20.29,4.88 32.74,7.54l102.25 17.86c87.67,15.94 181.41,12.47 269.85,10.71 24.79,-0.49 51.17,-2.58 75.32,-4.17 40.7,-2.69 97.95,-14.21 138.84,-21.41 116.8,-20.57 253.1,-67.56 357.99,-120.77 18.49,-9.38 37.15,-18.22 53.39,-26.42l77.27 -44.89c40.25,-25.34 79.45,-54.69 117.26,-82.26 63.96,-46.63 115.9,-94.74 168.76,-151.21 63.47,-67.82 130.41,-145.03 177.34,-226.23 5.14,-8.88 11.85,-14.82 16.56,-23.71 4.7,-8.89 8.37,-16.65 13.83,-25.2 19.75,-30.91 39.81,-68.85 55.61,-103.27l25.66 -55.77c3.85,-8.67 8.12,-19.33 11.83,-29.01 4.24,-11.05 8.3,-16.23 11.78,-26.18 14.01,-39.96 27.71,-79.21 39.3,-122.73 2.53,-9.51 4.81,-25.27 8.36,-32.03 9.16,-17.42 10.86,-45.6 16.93,-64.21 3.12,-9.56 4.46,-22.45 6.1,-32.56 24.35,-150.52 27.84,-222.61 22.71,-372.14l-17.42 -142.86c-5.16,-25.77 -10.76,-78.09 -20.23,-99.88 -8.59,-19.75 -9.53,-42.66 -16.05,-63.73 -2.8,-9.03 -6.71,-18.15 -9.35,-28.8 -10.45,-42.28 -29.03,-81.04 -42.42,-118.93 -20.13,-56.92 -51.45,-110.65 -78.69,-163.89 -11.97,-23.39 -19.97,-45.94 -37.21,-25.73l-78.9 80c-8.63,8.1 -39.53,28.47 -32.01,47.21 4.29,10.71 32.03,60.02 40.37,79.96l24.85 56.72c6.03,11.73 4.7,19.76 9.14,29.9l12.45 27.7c12.95,33.34 11.11,41.63 18.5,63.45 3.74,11.03 5.96,17.7 9.04,29.61 11.26,43.69 17.99,87.4 27.29,131.49 16.62,78.84 16.03,220.18 9.95,307.63 -7.03,101.06 -35.45,234.15 -72.73,328.47 -7.6,19.22 -14.08,37.16 -22.15,57.46 -33.99,85.5 -103.59,209.14 -160.79,279.21 -6.05,7.4 -9.41,12.6 -16.64,22.16 -12.35,16.3 -25.36,28.35 -37.04,44.34 -13.18,18.03 -41.13,45.32 -57.9,62.3l-61.94 58.28c-26.52,24.24 -55.49,49.76 -88.66,72.34 -7.28,4.96 -15.38,11.54 -23.15,17.51 -4.13,3.16 -7.56,5.46 -11.65,8.76 -16.9,13.63 -41.93,26.15 -59.91,37.83 -31.6,20.52 -68.26,38.81 -103.47,57.4l-41.32 19.65c-5,2.17 -10.5,3.12 -15.74,5.28 -9.07,3.74 -18.6,8.3 -27.95,12.51 -19.87,8.94 -37.51,13.82 -57.64,21.73 -25.22,9.92 -65.91,23.36 -91.28,28.88l-65.14 14.76c-63.47,14.69 -82.12,12.73 -140.07,21.2 -78.82,11.53 -187.7,14.22 -264.94,-0.23 -11.56,-2.16 -24.68,-1.84 -37.66,-3.35 -69.07,-8.01 -166.34,-28.47 -228.25,-51.2 -9.48,-3.48 -18.62,-8.02 -28.96,-11.28 -86.5,-27.25 -167.74,-70.15 -244.18,-116.48 -33.26,-20.17 -63.44,-43.55 -95.41,-63.79 -5.78,-3.67 -15.75,-12.34 -21.77,-16.92l-86.83 -73.99c-75.79,-71.1 -145.38,-151.89 -202.27,-239.66 -5.27,-8.13 -8.85,-16.33 -14.43,-24.4 -23.02,-33.31 -40.27,-67.72 -58.29,-102.71l-38.56 -84.08c-3.21,-8.07 -6.73,-18 -10.91,-27.57 -32.21,-73.71 -53.26,-161.12 -69.75,-250.07 -35.03,-189.05 -16.3,-406.97 32.81,-572.46 6.63,-22.32 11.09,-43.59 18.73,-63.57 24.84,-64.91 40.8,-104.78 71.98,-166.11 33.37,-65.64 71.12,-127.63 115.5,-186.14l26.31 -32.6c27.08,-39.51 62.47,-72.68 94.9,-107.1 27.03,-28.68 54.76,-50.66 83.97,-76.98 29.55,-26.62 123.16,-92.83 162.19,-116.69l132.77 -69.03c38.4,-18.06 76.12,-31.53 115.19,-45.97 53.76,-19.88 133.67,-40.2 190.54,-48.5 47.45,-6.94 86.92,-16.42 141.39,-18.19 52.82,-1.71 108.31,-2.75 161.05,-0.36 81.04,3.67 199.05,23.33 273.93,45.9 88.74,26.75 177.82,56.93 256.3,104.1 17.91,10.76 28.66,2.48 40.47,-11.48 16.54,-19.55 68.32,-68.03 89.92,-89.25 8.41,-8.27 15,-9.21 13.36,-25.02l-25.68 -14.5z"/>
   <path class="fil0" d="M1469.18 2497.89c38.53,-0.04 81.8,-0.58 118.16,-5.16l101.31 -19.27c14.96,-4.33 31.61,-7.68 46.53,-12.3l88.92 -31.41c16.36,-6.4 27.13,-11.53 42.53,-18.52 109.16,-49.52 202.73,-117.97 282.26,-196.6 20.43,-20.19 37.14,-42.03 55.89,-62.27 17.63,-19.03 60.64,-78.23 75.54,-103.64 7.31,-12.45 15.73,-24.49 23.01,-38.41 13.85,-26.48 27.79,-50.39 40.91,-79.01 79.9,-174.36 100.04,-357.17 73.78,-548.57 -4.45,-32.43 -20.24,-99.96 -30.69,-130.18 -6.79,-19.63 -12.72,-38.02 -20.17,-59.4 -13.12,-37.65 -32.14,-77.29 -50.99,-112.01 -4.93,-9.08 -10.35,-17.03 -14.86,-25.77 -7.21,-13.94 -5.07,-18.17 -22.27,-20.37 -36.52,37.73 -70.59,74.82 -109.36,108.46 -11.16,9.67 -14.73,16.17 -6.36,31.36 13.57,24.61 11.62,23.97 20.93,44.65 9.86,21.89 6.64,8.46 19.25,45.45 4.22,12.39 8.61,19.46 11.64,32.81l17.79 70.56c3.36,11.86 4.15,24.03 6.66,36.18 13.24,63.88 15.4,156.98 6.13,221.97 -2.03,14.27 -5.77,23.65 -7.78,40.85 -9.67,82.82 -39.49,147.18 -71.49,223.02 -5.23,12.39 -9.95,19.27 -17.46,31 -12.25,19.13 -23.27,42.49 -37.58,60.23 -13.62,16.89 -25.53,38.58 -41.68,56.12l-47 50.81c-51.38,50.27 -104.91,90.57 -166.11,127.35 -21.07,12.66 -42.26,21.07 -64.1,33.47 -18.6,10.55 -49.67,19.23 -70.52,27.56 -50.36,20.13 -105.57,30.1 -159.5,36.36 -30.69,3.57 -66.33,7.19 -97.4,7.22 -49.86,0.04 -134.42,-8.16 -175.95,-20.31 -50.63,-14.82 -101.08,-26.14 -148.69,-49.51 -22.56,-11.07 -43.54,-20.76 -64.66,-33.23 -11.71,-6.91 -19.02,-12.56 -30.01,-18.64 -30.01,-16.61 -86.02,-60.2 -110.64,-84.97 -9.62,-9.68 -15.98,-14.97 -26.43,-24.41 -12.39,-11.17 -56.6,-63.54 -67.95,-78.81 -13.99,-18.8 -28.46,-36.64 -40.74,-56.97 -42.69,-70.64 -84.65,-162.66 -100.61,-243.22 -15.21,-76.8 -30.91,-187.45 -13.99,-268.09 5.22,-24.87 6.12,-62.99 13.94,-84.38 5.9,-16.16 12.57,-55.65 21.38,-76.62 9.84,-23.4 16.93,-48.17 28.92,-70.76 2.65,-4.98 5.58,-9.41 8.46,-15.6 27.68,-59.36 62.73,-114.27 105.22,-163.82 29.64,-34.59 63.89,-69.11 98.6,-99.04 22.88,-19.73 56.82,-44.68 85.27,-61.56 73.26,-43.47 85.4,-47.86 166.5,-79.73 10.94,-4.3 25.02,-8.1 37.84,-11.21 14.32,-3.47 27.74,-8.29 40.39,-10.75 61.37,-11.91 109.86,-19.14 179.26,-19.01 111.58,0.19 210.38,24.42 296.64,60.63l60.07 27.81c19.16,10.21 27.05,-7.75 52.19,-33.29l68.09 -66.49c38.29,-31.71 11.2,-30.72 -29.12,-54.63 -21.88,-12.97 -56.81,-28.14 -81.79,-38.52 -30.32,-12.58 -57.01,-24.06 -89.72,-32.49 -22.7,-5.86 -38.3,-12.17 -63.01,-16.63 -22.53,-4.07 -44.53,-9.19 -67.62,-13.58 -23.86,-4.53 -49.17,-4.9 -72.83,-8.6 -63.45,-9.93 -137.45,-0.66 -199.18,4.04 -36.95,2.82 -66.77,14.02 -101.92,18.13 -34.33,4.02 -145.41,45.03 -177.68,62.27 -28.17,15.05 -53.48,24.6 -79.35,40.95 -58.71,37.09 -86.88,53.76 -141.52,98.88 -76.14,62.89 -143.63,141.34 -196.06,225.57 -9.27,14.88 -14.01,25.58 -22.89,38.27 -9.53,13.62 -32.46,61.91 -41.11,80.8 -11.38,24.86 -22.41,53.15 -31.59,80.78 -9.74,29.31 -20.69,60.26 -27.51,92.06 -15.26,71.13 -24.34,138.93 -24,219.2 0.33,81.27 8.04,139.56 24.1,216.49 6.43,30.81 14.85,67.79 26.59,93.72 6.19,13.67 9.69,29.16 15.94,43.29 0.97,2.2 4.14,7.7 4.67,8.91l14.12 32.99c11.74,24.16 24.83,57.57 39.91,80.38 16.6,25.1 30.28,52.22 46.2,73.95 9.26,12.64 16.95,20.84 26.07,32.97 4.59,6.11 7.79,12.18 12.41,18.27 40.63,53.56 114.32,124.79 168.1,163.95 23.53,17.12 43.74,35.7 70.49,49.77 13.86,7.29 26.21,16.21 37.85,23.28 32.36,19.64 66.63,33.29 100.75,49.89 20.72,10.08 44.13,17.48 66.38,25.58 45.94,16.74 94.14,29.94 142.95,36.31 18.2,2.37 33.84,7.03 52.42,8.96 36.9,3.83 79.4,4.28 118.93,4.23z"/>
   <path class="fil0" d="M2997.13 310.61c-13.21,-6.96 -42.74,-10.94 -60.33,-15.3 -19.24,-4.77 -41.35,-9.95 -60.91,-16 -18.81,-5.82 -44.85,-9.79 -63.55,-14.64 -14.39,-3.73 -47.83,-10.05 -58.59,-18.3 -8.31,-6.37 -13.27,-45.1 -16.51,-58.88l-23.61 -92.5c-4.4,-11.82 -17.36,-83.02 -24.01,-92.14 -15.8,-0.44 -18.44,9.55 -26.1,18.81l-395.34 395.13c-43.79,43.6 -56.97,45.82 -48.49,86.61 2.34,11.27 2.92,31.68 4.12,43.4 6.46,62.96 25.38,81.49 -7.29,111.63l-47.29 46.58c-29.24,32.24 -84.32,85.32 -116.79,117.42 -62.53,61.84 -120.82,120.01 -184.73,184.02l-92.62 92.82c-48.29,51.19 -112.01,110.51 -162.9,163.04l-163.03 162.98c-17,16.56 -54.94,53.04 -67.6,72.99 -5.55,8.75 -9.38,24.08 -10,36.67 -1.39,28.06 11.53,51.98 27.08,66.5 42.89,40.04 88.95,35.5 128.15,-2.79 155.96,-152.37 309.76,-312.76 466.23,-464.92 109.12,-106.11 216.2,-220.82 325.71,-326.2 17.69,-17.03 35.35,-40.86 51.09,-42.07 22.31,-1.72 145.78,24.56 164.71,15.31l93.95 -93.47c29.84,-32.82 83.53,-80.58 116.51,-115.7 7.58,-8.07 15.48,-16.73 23.09,-23.7 41.62,-38.09 97.19,-98.62 139.78,-139.37 16.2,-15.5 30.71,-32.14 46.89,-46.86 4.11,-3.74 7.27,-7.11 11.26,-11.12 20.02,-20.14 31.99,-24.84 31.12,-39.95z"/>
   <path class="fil0" d="M1461.03 1838.9c-35.6,0.07 -89.27,-11.66 -118.1,-25.19 -27.32,-12.83 -62.54,-36.44 -84.49,-55.87 -50.95,-45.09 -85.01,-116.54 -95.52,-187.39 -4.22,-28.44 -2.57,-62.56 2.75,-88.98 4.33,-21.55 11.82,-51.74 22.36,-70.56 3.8,-6.78 4.4,-10.31 7.74,-17.34 21.97,-46.13 83.41,-103.4 130.25,-128.01 94.28,-49.54 111.27,-15.27 140.98,-46.53 17.34,-18.25 30.58,-31.02 46.53,-47.2l71.07 -69.5c14.41,-15.25 20.29,-15.47 20.95,-25.78 -13.05,-13.06 -108.97,-23.38 -132.3,-23.36 -156.09,0.12 -264.55,60.27 -346.7,139.15 -19.91,19.11 -37.57,42.19 -55.7,66.53 -17.76,23.85 -29.69,49.11 -43.93,76.27 -41.67,79.52 -54.06,223.15 -30.73,312.34 4.77,18.26 7.29,31.38 13.87,47.34 3.12,7.58 4.84,14.87 8.06,22.28 3.68,8.46 5.28,10.24 9.04,19.83 2.44,6.24 6.57,14.64 10.17,20.07l33.98 55.68c24.78,38.2 81.29,93.31 119.77,118.55 11.59,7.62 26.18,18.53 37.03,24.04 74.9,38.02 140.53,60.61 236.99,60.84 264.03,0.63 481.44,-211.24 481.8,-481.16 0.04,-27.4 -0.34,-49.78 -5.42,-74.72 -3.07,-15.09 -8.97,-55.84 -15.91,-63.45 -11.28,-0.11 -13.03,2.87 -18.29,9.74 -16.24,21.23 -51.09,51.15 -70.44,72.37 -10.11,11.09 -17.97,17.81 -27.67,27.27 -9.83,9.58 -17.31,17.69 -28.54,28.52 -12.46,12.02 -15.23,17.54 -15.48,38.94 -0.44,38.22 -23.62,95.99 -44.45,125.22l-25.21 31.84c-58.36,70.55 -139.81,108.05 -234.46,108.22z"/>
  </g>
 </g>
</svg>
