<svg width="248" height="205" viewBox="0 0 248 205" fill="none" xmlns="http://www.w3.org/2000/svg">
<path d="M58.8224 132.078C58.8224 132.078 57.5974 128.102 55.4453 125.948C53.2932 123.794 36.7053 107.193 34.2553 104.741C31.8053 102.289 27.0044 97.5179 27.0044 90.5593C27.0044 83.6009 32.8647 78.6306 39.9501 75.7809C47.0354 72.9312 162.256 26.1439 170.798 22.5653C179.34 18.9866 191.624 13.4862 197.186 10.8353C202.748 8.18443 218.508 0.720696 219.03 0.439077C219.551 0.157459 219.833 0 220.081 0C220.329 0 220.561 0.215414 220.561 0.497032C220.561 0.77865 220.379 1.16802 220.321 1.35859C220.263 1.54915 215.495 15.7393 211.721 20.5771C207.946 25.4149 206.092 27.4693 188.015 33.8313C169.937 40.1933 49.2205 82.6068 46.1745 83.7997C43.1286 84.9926 36.2418 87.1132 36.2418 92.2161C36.2418 96.3249 40.3473 99.506 41.5392 100.566C42.7312 101.627 75.1782 132.078 75.1782 132.078L58.8224 132.078Z" fill="#FF0000"/>
<path d="M44.5856 99.1579C44.5856 99.1579 41.6389 96.4242 41.2416 96.0266C40.8443 95.629 39.9834 94.138 39.9834 93.0776C39.9834 92.0172 40.1821 89.4658 44.6518 88.0741C49.1215 86.6824 153.449 52.3209 159.144 50.5316C164.838 48.7422 198.469 37.5756 204.454 34.8916C205.72 34.3449 205.943 34.2124 206.142 34.2124C206.341 34.2124 206.597 34.3367 206.597 34.6431C206.597 34.9496 206.457 35.1816 206.349 35.3556C206.241 35.5295 200.48 47.3672 197.103 51.0949C193.726 54.8226 190.697 57.4569 184.538 58.9977C178.38 60.5385 82.3798 86.3842 81.759 86.5581C81.1382 86.7321 80.4181 87.3037 80.4181 88.0741C80.4181 89.3415 81.4611 89.4409 81.4611 89.4409L44.5856 99.1579Z" fill="#FF0000"/>
<path d="M46.7212 101.047L55.2137 108.949L99.2655 100.649C99.2655 100.649 98.1233 99.9283 98.1233 99.0958C98.1233 98.2632 98.7937 97.7165 99.6008 97.555C100.408 97.3934 164.276 84.9926 168.249 84.2967C172.222 83.6009 177.453 82.4411 181.724 77.272C185.995 72.1029 190.138 65.1982 190.275 64.9869C190.411 64.7757 190.461 64.6514 190.461 64.5272C190.461 64.4029 190.386 64.0923 190.063 64.0923C189.741 64.0923 189.567 64.1668 189.244 64.2911C188.921 64.4154 46.7212 101.047 46.7212 101.047Z" fill="#FF0000"/>
<path d="M171.626 89.4161C171.445 89.4571 57.2334 110.871 57.2334 110.871L67.1331 120.033L119.959 113.373C119.959 113.373 118.966 113.009 118.966 111.981C118.966 110.954 119.942 110.573 120.505 110.474C121.068 110.374 147.688 106.464 150.817 106C153.946 105.536 159.094 104.459 163.431 99.8866C167.769 95.3139 172.04 90.2442 172.205 90.0454C172.371 89.8466 172.396 89.7225 172.396 89.6231C172.396 89.5237 172.271 89.3167 172.023 89.3167C171.957 89.3167 171.808 89.3747 171.626 89.4161Z" fill="#FF0000"/>
<path d="M69.4839 122.17L80.0789 132.111H150.006L123.849 115.808L69.4839 122.17Z" fill="#FF0000"/>
<path d="M3.30434 197.772H7.9853C9.49973 197.772 10.6011 197.566 11.2895 197.152C11.9091 196.739 12.2532 196.12 12.2532 195.363C12.2532 194.812 12.0467 194.33 11.7025 193.917C11.2895 193.504 10.8076 193.229 10.1881 193.16C9.77508 193.091 9.01787 193.022 7.9853 193.022H3.37318V197.772H3.30434ZM0.89502 204.725V191.439H7.70995C8.88019 191.439 9.84392 191.508 10.4635 191.577C11.3584 191.714 12.1156 191.921 12.6663 192.196C13.2858 192.472 13.7677 192.953 14.1119 193.504C14.456 194.055 14.6626 194.674 14.6626 195.294C14.6626 196.395 14.1807 197.359 13.217 198.185C12.2532 198.942 10.4635 199.355 7.91647 199.355H3.30434V204.793H0.89502V204.725Z" fill="#333436"/>
<path d="M16.3145 191.439H30.5639V193.022H24.6438V204.725H22.2345V193.022H16.3145V191.439Z" fill="#333436"/>
<path d="M41.5779 199.286H47.7044L45.8458 195.569C45.2951 194.468 44.8821 193.504 44.5379 192.816C44.2625 193.711 43.9872 194.537 43.5742 195.363L41.5779 199.286ZM36.415 204.725L43.2988 191.439H45.9146L53.2114 204.725H50.5268L48.4616 200.663H40.8895L38.962 204.725H36.415Z" fill="#333436"/>
<path d="M53.9688 201.833L56.1716 201.558C56.3092 202.178 56.6534 202.728 57.2041 203.073C57.7548 203.417 58.5809 203.623 59.5446 203.623C60.5772 203.623 61.3344 203.486 61.8162 203.141C62.2981 202.866 62.5735 202.453 62.5735 202.04C62.5735 201.696 62.367 201.352 61.8851 201.145C61.6097 201.007 60.8525 200.801 59.6134 200.594C58.0302 200.319 56.8599 200.044 56.2404 199.837C55.6209 199.631 55.139 199.286 54.7948 198.942C54.4506 198.529 54.3129 198.116 54.3129 197.634C54.3129 197.221 54.4506 196.808 54.726 196.464C55.0013 196.12 55.3455 195.776 55.8274 195.569C56.1716 195.363 56.6534 195.225 57.2041 195.087C57.8237 194.95 58.4432 194.881 59.1316 194.881C60.1641 194.881 61.059 195.019 61.8162 195.225C62.5735 195.432 63.1242 195.707 63.5372 196.12C63.8814 196.464 64.1567 197.015 64.2944 197.634L62.1604 197.841C62.0916 197.359 61.7474 196.946 61.3344 196.671C60.8525 196.395 60.233 196.258 59.3381 196.258C58.3055 196.258 57.6171 196.395 57.2041 196.602C56.7911 196.877 56.5846 197.153 56.5846 197.497C56.5846 197.703 56.6534 197.91 56.8599 198.047C57.0664 198.254 57.3418 198.392 57.686 198.46C57.8925 198.529 58.5809 198.667 59.6134 198.873C61.1967 199.149 62.2293 199.424 62.8488 199.631C63.4684 199.837 63.9502 200.113 64.2944 200.457C64.6386 200.801 64.8451 201.283 64.8451 201.833C64.8451 202.384 64.6386 202.866 64.2256 203.348C63.8125 203.83 63.193 204.174 62.367 204.449C61.5409 204.725 60.646 204.862 59.6134 204.862C57.8925 204.862 56.6534 204.587 55.7585 204.105C54.8636 203.554 54.3129 202.797 54.0376 201.833H53.9688Z" fill="#333436"/>
<path d="M72.2105 203.279L72.4859 204.725C71.8664 204.794 71.3157 204.862 70.8338 204.862C70.0077 204.862 69.3882 204.794 68.9752 204.587C68.5621 204.38 68.218 204.174 68.0114 203.83C67.8049 203.554 67.7361 202.866 67.7361 201.902V196.326H66.084V195.087H67.7361V192.678L69.9389 191.714V195.087H72.1417V196.326H69.9389V201.971C69.9389 202.453 70.0077 202.728 70.0766 202.866C70.1454 203.004 70.2831 203.073 70.4896 203.21C70.6961 203.279 70.9026 203.348 71.2468 203.348C71.5222 203.348 71.7975 203.348 72.2105 203.279Z" fill="#333436"/>
<path d="M74.3447 204.725V195.087H76.341V196.533C76.8229 195.845 77.3047 195.432 77.7178 195.156C78.1308 194.95 78.6127 194.812 79.1634 194.812C79.9206 194.812 80.6778 194.95 81.435 195.363L80.6778 196.877C80.1271 196.671 79.5764 196.533 79.0945 196.533C78.6127 196.533 78.1996 196.671 77.7866 196.877C77.3736 197.084 77.0982 197.359 76.9606 197.772C76.6852 198.323 76.6164 199.011 76.6164 199.699V204.725H74.4136H74.3447Z" fill="#333436"/>
<path d="M91.0724 199.906C90.2464 200.181 89.0761 200.319 87.424 200.526C86.5291 200.594 85.8408 200.732 85.4966 200.87C85.1524 201.007 84.8082 201.145 84.6017 201.42C84.3952 201.627 84.3263 201.902 84.3263 202.178C84.3263 202.591 84.5328 203.004 85.0147 203.279C85.4277 203.554 86.1161 203.692 86.9422 203.692C87.7682 203.692 88.5254 203.554 89.2138 203.279C89.9022 203.004 90.3841 202.66 90.6594 202.178C90.8659 201.833 91.0036 201.283 91.0036 200.526V199.906H91.0724ZM91.2789 203.554C90.4529 204.036 89.6957 204.449 88.9385 204.656C88.1812 204.862 87.3552 205 86.5291 205C85.0835 205 83.9821 204.725 83.2249 204.243C82.4677 203.761 82.0547 203.073 82.0547 202.247C82.0547 201.765 82.1924 201.352 82.4677 200.939C82.7431 200.526 83.1561 200.25 83.638 199.975C84.1198 199.768 84.6705 199.562 85.2212 199.424C85.6342 199.355 86.3226 199.286 87.2175 199.149C89.0073 199.011 90.3152 198.805 91.1413 198.598C91.1413 198.392 91.1413 198.254 91.1413 198.185C91.1413 197.497 90.9348 197.084 90.5217 196.808C89.971 196.464 89.145 196.258 87.9747 196.258C86.9422 196.258 86.185 196.395 85.6342 196.671C85.1524 196.946 84.7394 197.428 84.5328 198.116L82.3989 197.91C82.6054 197.221 82.9496 196.671 83.3626 196.258C83.8445 195.845 84.464 195.5 85.2901 195.294C86.1161 195.087 87.1487 194.95 88.2501 194.95C89.3515 194.95 90.2464 195.019 91.0036 195.225C91.692 195.432 92.2427 195.638 92.518 195.982C92.8622 196.258 93.0687 196.671 93.2064 197.084C93.2752 197.359 93.3441 197.841 93.3441 198.598V200.732C93.3441 202.247 93.4129 203.21 93.4817 203.623C93.5506 204.036 93.7571 204.449 94.0325 204.793H91.692C91.4855 204.449 91.3478 204.036 91.2789 203.554Z" fill="#333436"/>
<path d="M106.492 196.877H115.785V191.439H118.125V204.725H115.785V198.46H106.492V204.725H104.083V191.439H106.492V196.877Z" fill="#333436"/>
<path d="M123.288 199.906C123.288 201.145 123.632 202.04 124.39 202.66C125.147 203.279 126.042 203.554 127.143 203.554C128.245 203.554 129.139 203.279 129.897 202.66C130.654 202.04 130.998 201.076 130.998 199.837C130.998 198.667 130.654 197.772 129.897 197.153C129.139 196.533 128.245 196.258 127.143 196.258C126.042 196.258 125.147 196.533 124.39 197.153C123.632 197.772 123.288 198.667 123.288 199.906ZM121.017 199.906C121.017 198.116 121.705 196.808 123.013 195.982C124.114 195.294 125.491 194.881 127.143 194.881C128.933 194.881 130.379 195.294 131.549 196.189C132.719 197.084 133.27 198.254 133.27 199.768C133.27 201.007 132.994 201.971 132.512 202.66C132.031 203.348 131.273 203.899 130.31 204.312C129.346 204.725 128.313 204.931 127.143 204.931C125.285 204.931 123.839 204.518 122.738 203.623C121.636 202.728 121.017 201.489 121.017 199.906Z" fill="#333436"/>
<path d="M135.886 204.725V195.087H137.882V196.464C138.846 195.432 140.223 194.881 142.012 194.881C142.77 194.881 143.527 195.019 144.146 195.225C144.835 195.432 145.317 195.707 145.592 196.051C145.936 196.395 146.143 196.808 146.28 197.29C146.349 197.566 146.418 198.116 146.418 198.873V204.793H144.215V198.942C144.215 198.254 144.146 197.772 143.94 197.428C143.802 197.084 143.458 196.808 143.045 196.671C142.632 196.464 142.081 196.395 141.53 196.395C140.567 196.395 139.809 196.602 139.121 197.084C138.433 197.497 138.089 198.392 138.089 199.562V204.793H135.886V204.725Z" fill="#333436"/>
<path d="M151.305 199.906C151.305 201.145 151.65 202.04 152.338 202.66C153.026 203.279 153.852 203.554 154.816 203.554C155.78 203.554 156.606 203.279 157.294 202.66C157.983 202.109 158.327 201.214 158.327 199.975C158.327 198.667 157.983 197.703 157.294 197.084C156.606 196.464 155.78 196.189 154.747 196.189C153.783 196.189 152.957 196.464 152.269 197.084C151.581 197.703 151.305 198.598 151.305 199.906ZM158.258 204.725V203.486C157.432 204.449 156.193 204.931 154.61 204.931C153.577 204.931 152.613 204.725 151.718 204.312C150.823 203.899 150.204 203.279 149.722 202.522C149.24 201.765 149.034 200.87 149.034 199.906C149.034 198.942 149.24 198.047 149.653 197.29C150.066 196.533 150.755 195.913 151.581 195.5C152.476 195.087 153.439 194.881 154.472 194.881C155.229 194.881 155.986 195.019 156.537 195.225C157.157 195.5 157.638 195.776 158.051 196.189V191.439H160.254V204.725H158.189H158.258Z" fill="#333436"/>
<path d="M172.163 199.906C171.337 200.181 170.167 200.319 168.515 200.526C167.62 200.594 166.932 200.732 166.587 200.87C166.243 201.007 165.899 201.145 165.693 201.42C165.486 201.627 165.417 201.902 165.417 202.178C165.417 202.591 165.624 203.004 166.106 203.279C166.519 203.554 167.207 203.692 168.033 203.692C168.859 203.692 169.616 203.554 170.305 203.279C170.993 203.004 171.475 202.66 171.75 202.178C171.957 201.833 172.094 201.283 172.094 200.526V199.906H172.163ZM172.37 203.554C171.544 204.036 170.786 204.449 170.029 204.656C169.272 204.862 168.446 205 167.62 205C166.174 205 165.073 204.725 164.316 204.243C163.559 203.761 163.146 203.073 163.146 202.247C163.146 201.765 163.283 201.352 163.559 200.939C163.834 200.526 164.247 200.25 164.729 199.975C165.211 199.768 165.761 199.562 166.312 199.424C166.725 199.355 167.413 199.286 168.308 199.149C170.098 199.011 171.406 198.805 172.232 198.598C172.232 198.392 172.232 198.254 172.232 198.185C172.232 197.497 172.026 197.084 171.613 196.808C171.062 196.464 170.236 196.258 169.066 196.258C168.033 196.258 167.276 196.395 166.725 196.671C166.243 196.946 165.83 197.428 165.624 198.116L163.49 197.91C163.696 197.221 164.04 196.671 164.453 196.258C164.935 195.845 165.555 195.5 166.381 195.294C167.207 195.087 168.239 194.95 169.341 194.95C170.442 194.95 171.337 195.019 172.094 195.225C172.783 195.432 173.333 195.638 173.609 195.982C173.953 196.258 174.16 196.671 174.297 197.084C174.366 197.359 174.435 197.841 174.435 198.598V200.732C174.435 202.247 174.504 203.21 174.573 203.623C174.641 204.036 174.848 204.449 175.123 204.793H172.783C172.576 204.449 172.439 204.036 172.37 203.554Z" fill="#333436"/>
<path d="M185.036 204.725V191.439H188.615L192.883 200.87C193.296 201.765 193.572 202.384 193.709 202.866C193.916 202.384 194.26 201.696 194.673 200.732L199.01 191.508H202.176V204.793H199.905V193.642L194.673 204.793H192.539L187.376 193.435V204.793H185.104L185.036 204.725Z" fill="#333436"/>
<path d="M207.201 199.906C207.201 201.145 207.546 202.04 208.303 202.66C209.06 203.279 209.955 203.554 211.056 203.554C212.158 203.554 213.053 203.279 213.81 202.66C214.567 202.04 214.911 201.076 214.911 199.837C214.911 198.667 214.567 197.772 213.81 197.153C213.053 196.533 212.158 196.258 211.056 196.258C209.955 196.258 209.06 196.533 208.303 197.153C207.546 197.772 207.201 198.667 207.201 199.906ZM204.93 199.906C204.93 198.116 205.618 196.808 206.926 195.982C208.027 195.294 209.404 194.881 211.056 194.881C212.846 194.881 214.292 195.294 215.462 196.189C216.632 197.084 217.183 198.254 217.183 199.768C217.183 201.007 216.907 201.971 216.426 202.66C215.944 203.348 215.187 203.899 214.223 204.312C213.259 204.725 212.226 204.931 211.056 204.931C209.198 204.931 207.752 204.518 206.651 203.623C205.549 202.728 204.93 201.489 204.93 199.906Z" fill="#333436"/>
<path d="M224.548 203.279L224.824 204.725C224.204 204.794 223.654 204.862 223.172 204.862C222.346 204.862 221.726 204.794 221.313 204.587C220.9 204.38 220.556 204.174 220.349 203.83C220.143 203.554 220.074 202.866 220.074 201.902V196.326H218.422V195.087H220.074V192.678L222.277 191.714V195.087H224.48V196.326H222.277V201.971C222.277 202.453 222.346 202.728 222.414 202.866C222.483 203.004 222.621 203.073 222.827 203.21C223.034 203.279 223.241 203.348 223.585 203.348C223.86 203.348 224.135 203.348 224.548 203.279Z" fill="#333436"/>
<path d="M228.128 199.906C228.128 201.145 228.472 202.04 229.229 202.66C229.987 203.279 230.882 203.554 231.983 203.554C233.084 203.554 233.979 203.279 234.737 202.66C235.494 202.04 235.838 201.076 235.838 199.837C235.838 198.667 235.494 197.772 234.737 197.153C233.979 196.533 233.084 196.258 231.983 196.258C230.882 196.258 229.987 196.533 229.229 197.153C228.472 197.772 228.128 198.667 228.128 199.906ZM225.856 199.906C225.856 198.116 226.545 196.808 227.853 195.982C228.954 195.294 230.331 194.881 231.983 194.881C233.773 194.881 235.218 195.294 236.389 196.189C237.559 197.084 238.11 198.254 238.11 199.768C238.11 201.007 237.834 201.971 237.352 202.66C236.87 203.348 236.113 203.899 235.15 204.312C234.186 204.725 233.153 204.931 231.983 204.931C230.124 204.931 228.679 204.518 227.577 203.623C226.476 202.728 225.856 201.489 225.856 199.906Z" fill="#333436"/>
<path d="M240.657 204.725V195.087H242.653V196.533C243.135 195.845 243.617 195.432 244.03 195.156C244.443 194.95 244.925 194.812 245.475 194.812C246.233 194.812 246.99 194.95 247.747 195.294L246.99 196.808C246.439 196.602 245.888 196.464 245.407 196.464C244.925 196.464 244.512 196.602 244.099 196.808C243.686 197.015 243.41 197.29 243.273 197.703C242.997 198.254 242.928 198.942 242.928 199.631V204.656H240.726L240.657 204.725Z" fill="#333436"/>
<path d="M207.614 173.059L224.135 144.01H247.471V180.356H232.878V151.995L215.6 180.356H199.423L181.8 151.995V180.356H167.688V144.01H190.818L207.614 173.059Z" fill="#FF0000"/>
<path d="M104.496 158.948H139.052V144.01H155.573V180.356H139.052V165.625H104.496V180.356H87.5615V144.01H104.496V158.948Z" fill="#FF0000"/>
<path d="M79.5764 179.392H61.2656L39.3752 153.096L17.9666 179.392H0L29.6002 143.941H50.045L79.5764 179.392Z" fill="#FF0000"/>
</svg>
