<svg xmlns="http://www.w3.org/2000/svg" width="140.794" height="140.792" viewBox="0 0 140.794 140.792">
  <g id="Group_856" data-name="Group 856" transform="translate(-248.103 -49.252)">
    <g id="Group_855" data-name="Group 855" transform="translate(-1419.206 -786.056)">
      <g id="Group_509" data-name="Group 509" transform="translate(1667.309 835.309)">
        <g id="Group_502" data-name="Group 502" transform="translate(40.148 101.745)">
          <g id="Group_501" data-name="Group 501" transform="translate(0 0)">
            <path id="Path_79" data-name="Path 79" d="M148.749,370a2.75,2.75,0,1,0,2.75,2.75A2.751,2.751,0,0,0,148.749,370Z" transform="translate(-145.999 -370.002)" fill="#ec1b30"/>
          </g>
        </g>
        <g id="Group_504" data-name="Group 504" transform="translate(0 0)">
          <g id="Group_503" data-name="Group 503">
            <path id="Path_80" data-name="Path 80" d="M123.783,52.249l16.2-16.2a2.75,2.75,0,0,0-1.133-4.572L99.394,19.293a27.5,27.5,0,0,0-51.756-2.07L1.931,31.475A2.75,2.75,0,0,0,.8,36.045L17.436,52.676,6.947,70.158a2.75,2.75,0,0,0,1.489,4.024l15.213,5.071v42.294a2.75,2.75,0,0,0,1.784,2.575c9.3,3.488,43.864,16.45,44.049,16.516a2.74,2.74,0,0,0,1.759.024l.024-.007,49.5-16.5a2.75,2.75,0,0,0,1.88-2.609V78.12l16.224-5.1a2.75,2.75,0,0,0,1.12-4.568ZM100.645,27.5c0-.7-.029-1.4-.082-2.091l32.309,9.972L119.151,49.1,96.732,41.631A27.577,27.577,0,0,0,100.645,27.5ZM52.337,20.343A22,22,0,0,1,95.145,27.5a22,22,0,0,1-22,22A22.016,22.016,0,0,1,52.337,20.343ZM7.909,35.372,45.94,23.513a27.724,27.724,0,0,0-.293,3.987A27.333,27.333,0,0,0,48.7,40.086L21.641,49.1Zm5.517,34.676,8.7-14.492L66.274,70.273,57.579,84.766Zm54.22,64.029-38.5-14.437V81.086c30.29,10.043,28.811,9.736,29.654,9.736a2.751,2.751,0,0,0,2.359-1.335l6.486-10.81ZM70.4,65.85l-40.8-13.6,22.217-7.405a27.491,27.491,0,0,0,41.433,1.422L111.2,52.249Zm46.748,53.714-44,14.666V76.587l9.749,12.185a2.751,2.751,0,0,0,2.972.906l31.278-9.829Zm-31.131-35.7L75.007,70.11,119.151,55.4,132.89,69.135Z" transform="translate(0 -0.002)" fill="#ec1b30"/>
          </g>
        </g>
        <g id="Group_506" data-name="Group 506" transform="translate(50.531 105.38)">
          <g id="Group_505" data-name="Group 505" transform="translate(0 0)">
            <path id="Path_81" data-name="Path 81" d="M193.589,385.688l-6.116-2.294a2.75,2.75,0,1,0-1.931,5.15l6.116,2.293a2.75,2.75,0,1,0,1.931-5.15Z" transform="translate(-183.757 -383.219)" fill="#ec1b30"/>
          </g>
        </g>
        <g id="Group_508" data-name="Group 508" transform="translate(40.147 113.233)">
          <g id="Group_507" data-name="Group 507" transform="translate(0 0)">
            <path id="Path_82" data-name="Path 82" d="M166.211,418.142l-16.5-6.187a2.75,2.75,0,0,0-1.931,5.15l16.5,6.187a2.75,2.75,0,0,0,1.931-5.15Z" transform="translate(-145.995 -411.779)" fill="#ec1b30"/>
          </g>
        </g>
      </g>
    </g>
    <text id="_" data-name="?" transform="translate(313 90)" fill="#ec1b30" font-size="41" font-family="Calibri-Bold, Calibri" font-weight="700"><tspan x="0" y="0">?</tspan></text>
  </g>
</svg>
